<svg xmlns="http://www.w3.org/2000/svg" width="25.057" height="23.161" viewBox="0 0 25.057 23.161">
  <g id="그룹_97" data-name="그룹 97" transform="translate(0 0)">
    <g id="빼기_1" data-name="빼기 1" transform="translate(0 0)" fill="none">
      <path d="M5.9,23.161h0A12.524,12.524,0,0,1,0,12.529,12.529,12.529,0,0,1,21.388,3.669,12.536,12.536,0,0,1,23.437,18.7a12.614,12.614,0,0,1-4.274,4.463l0-1.049a6.633,6.633,0,1,0-13.265,0v1.052Z" stroke="none"/>
      <path d="M 4.395150184631348 19.21447372436523 C 5.587646961212158 15.87358856201172 8.783514976501465 13.47639846801758 12.52890014648438 13.47639846801758 C 16.27418899536133 13.47639846801758 19.46995735168457 15.87404441833496 20.662109375 19.21391296386719 C 21.04910278320313 18.74397468566895 21.39581871032715 18.24059295654297 21.69662094116211 17.70964813232422 C 22.58651924133301 16.13885879516602 23.05690002441406 14.34738922119141 23.05690002441406 12.52890872955322 C 23.05690002441406 9.716288566589355 21.9618091583252 7.072158813476563 19.97335052490234 5.083598613739014 C 17.98496055603027 3.095118761062622 15.341139793396 2.000008821487427 12.52890014648438 2.000008821487427 C 9.716250419616699 2.000008821487427 7.072140216827393 3.095128774642944 5.083630084991455 5.08362865447998 C 3.095119953155518 7.07214879989624 2 9.716259002685547 2 12.52890872955322 C 2 14.34743881225586 2.470350027084351 16.13888931274414 3.360199928283691 17.70957946777344 C 3.661032199859619 18.24059295654297 4.007929801940918 18.74423980712891 4.395150184631348 19.21447372436523 M 5.895900249481201 23.16115951538086 L 5.894370079040527 23.16019821166992 C 4.125319957733154 22.05253791809082 2.647289991378784 20.50864791870117 1.620049953460693 18.69541931152344 C 0.560200035572052 16.82465934753418 1.220703005344603e-08 14.69230842590332 1.220703005344603e-08 12.52890872955322 C 1.220703005344603e-08 9.182028770446777 1.303160071372986 6.035678863525391 3.669409990310669 3.669418811798096 C 6.035669803619385 1.303168773651123 9.182029724121094 8.804016033536755e-06 12.52890014648438 8.804016033536755e-06 C 15.87537956237793 8.804016033536755e-06 19.02145957946777 1.303168773651123 21.38759994506836 3.669418811798096 C 23.75378036499023 6.03571891784668 25.05690002441406 9.182068824768066 25.05690002441406 12.52890872955322 C 25.05690002441406 14.69226837158203 24.49666023254395 16.82464790344238 23.43675994873047 18.69549942016602 C 22.40926933288574 20.5091381072998 20.93127059936523 22.05241966247559 19.16253089904785 23.15852928161621 L 19.1609992980957 22.10940933227539 C 19.1609992980957 18.45195960998535 16.18585014343262 15.47639846801758 12.52890014648438 15.47639846801758 C 8.871450424194336 15.47639846801758 5.895900249481201 18.45195960998535 5.895900249481201 22.10940933227539 L 5.895900249481201 23.15934944152832 L 5.895900249481201 23.16115951538086 Z" stroke="none" fill="#303030"/>
    </g>
    <g id="타원_3" data-name="타원 3" transform="translate(7.37 5.159)" fill="none" stroke="#303030" stroke-width="2">
      <circle cx="5.159" cy="5.159" r="5.159" stroke="none"/>
      <circle cx="5.159" cy="5.159" r="4.159" fill="none"/>
    </g>
  </g>
</svg>
