<svg xmlns="http://www.w3.org/2000/svg" width="34" height="31.426" viewBox="0 0 34 31.426">
  <g id="그룹_10" data-name="그룹 10" transform="translate(-1769 -96)">
    <g id="빼기_1" data-name="빼기 1" transform="translate(1769 96)" fill="none">
      <path d="M26,31.426v0L26,29a8.009,8.009,0,0,0-8-8H16a8.009,8.009,0,0,0-8,8v2.423A16.984,16.984,0,0,1,0,17,17,17,0,0,1,29.021,4.979,17.008,17.008,0,0,1,31.8,25.367,17.12,17.12,0,0,1,26,31.425Z" stroke="none"/>
      <path d="M 28.33171081542969 25.22288703918457 C 28.6429615020752 24.79516792297363 28.9301872253418 24.34974670410156 29.19145202636719 23.88858413696289 C 30.3747501373291 21.79995536804199 31.00020027160645 19.41795539855957 31.00020027160645 17.00009536743164 C 31.00020027160645 13.26057529449463 29.54392051696777 9.744865417480469 26.89963150024414 7.100574970245361 C 24.25534057617188 4.456284999847412 20.73962020874023 3.000005006790161 17.00010108947754 3.000005006790161 C 13.26058101654053 3.000005006790161 9.744860649108887 4.456284999847412 7.100571155548096 7.100574970245361 C 4.456281185150146 9.744865417480469 3.000001192092896 13.26057529449463 3.000001192092896 17.00009536743164 C 3.000001192092896 19.41795539855957 3.625461101531982 21.79996490478516 4.808751106262207 23.88860511779785 C 5.069956302642822 24.34966087341309 5.357157230377197 24.79503440856934 5.668277740478516 25.22256851196289 C 7.212445259094238 21.01211929321289 11.26117420196533 17.99970436096191 16.00020027160645 17.99970436096191 L 18.00000190734863 17.99970436096191 C 22.73902702331543 17.99970436096191 26.78754425048828 21.01153755187988 28.33171081542969 25.22288703918457 M 25.99857139587402 31.42597579956055 L 25.99857139587402 31.42416572570801 L 26.00010108947754 28.99980545043945 C 26.00010108947754 24.58852577209473 22.41127014160156 20.99970436096191 18.00000190734863 20.99970436096191 L 16.00020027160645 20.99970436096191 C 11.5889310836792 20.99970436096191 8.000101089477539 24.58852577209473 8.000101089477539 28.99980545043945 L 8.000101089477539 31.42321586608887 C 5.598581314086914 29.92305564880371 3.592961072921753 27.82868576049805 2.198541164398193 25.36738586425781 C 0.7602410912513733 22.82863426208496 1.089477564164554e-06 19.93527412414551 1.089477564164554e-06 17.00009536743164 C 1.089477564164554e-06 12.45926475524902 1.768331050872803 8.190164566040039 4.979250907897949 4.979255199432373 C 8.190171241760254 1.768334984779358 12.45926094055176 5.038757535658078e-06 17.00010108947754 5.038757535658078e-06 C 21.54094123840332 5.038757535658078e-06 25.81003189086914 1.768334984779358 29.02095031738281 4.979255199432373 C 32.23187255859375 8.190164566040039 34.00020217895508 12.45926475524902 34.00020217895508 17.00009536743164 C 34.00020217895508 19.93527412414551 33.23995971679688 22.82863426208496 31.80166053771973 25.36737442016602 C 30.40698051452637 27.82914543151855 28.40083122253418 29.9238452911377 26.00010108947754 31.42500495910645 L 25.99857139587402 31.42597579956055 Z" stroke="none" fill="#fff"/>
    </g>
    <g id="타원_3" data-name="타원 3" transform="translate(1779 103)" fill="none" stroke="#fff" stroke-width="3">
      <circle cx="7" cy="7" r="7" stroke="none"/>
      <circle cx="7" cy="7" r="5.5" fill="none"/>
    </g>
  </g>
</svg>
