<svg id="그룹_98" data-name="그룹 98" xmlns="http://www.w3.org/2000/svg" width="40.592" height="21.527" viewBox="0 0 40.592 21.527">
  <g id="world-grid">
    <path id="패스_6" data-name="패스 6" d="M21.763,11A10.763,10.763,0,1,0,32.527,21.763,10.764,10.764,0,0,0,21.763,11ZM22.2,31.556a.378.378,0,0,0-.07,0V27.373h3.422C24.786,29.653,23.573,31.248,22.2,31.556ZM17.88,27.373h3.339v4.178H21.21C19.848,31.231,18.644,29.64,17.88,27.373ZM11.971,22.22h4.143a19.443,19.443,0,0,0,.536,4.239H13.157A9.757,9.757,0,0,1,11.971,22.22Zm13.584-6.067H22.132V11.967a.378.378,0,0,1,.07,0C23.573,12.278,24.786,13.873,25.555,16.153Zm.272.914a18.364,18.364,0,0,1,.58,4.239H22.128V17.067h3.7ZM21.21,11.975h.009v4.178H17.88C18.644,13.886,19.848,12.3,21.21,11.975Zm.009,5.092v4.239H17.027a18.33,18.33,0,0,1,.58-4.239Zm-5.1,4.239H11.971a9.74,9.74,0,0,1,1.186-4.239H16.65A19.443,19.443,0,0,0,16.114,21.306Zm.914.914h4.191V26.46H17.607A18.364,18.364,0,0,1,17.027,22.22Zm5.1,4.239V22.22h4.279a18.33,18.33,0,0,1-.58,4.239Zm5.188-4.239h4.235A9.74,9.74,0,0,1,30.37,26.46H26.785A19.442,19.442,0,0,0,27.321,22.22Zm0-.914a19.442,19.442,0,0,0-.536-4.239H30.37a9.757,9.757,0,0,1,1.186,4.239ZM29.8,16.153H26.53a9.772,9.772,0,0,0-2.06-3.813A9.818,9.818,0,0,1,29.8,16.153ZM18.93,12.375A9.914,9.914,0,0,0,16.9,16.153H13.724A9.851,9.851,0,0,1,18.93,12.375Zm-5.206,15H16.9a9.914,9.914,0,0,0,2.025,3.778A9.851,9.851,0,0,1,13.724,27.373ZM24.47,31.187a9.792,9.792,0,0,0,2.06-3.818H29.8A9.781,9.781,0,0,1,24.47,31.187Z" transform="translate(-11 -11)" fill="#303030"/>
  </g>
  <text id="KR" transform="translate(26.592 15.331)" fill="#303030" font-size="11" font-family="KoreanGD17-R, KoreanGD17R"><tspan x="0" y="0">KR</tspan></text>
</svg>
