<svg xmlns="http://www.w3.org/2000/svg" width="67" height="34" viewBox="0 0 67 34">
  <g id="그룹_11" data-name="그룹 11" transform="translate(-1765 -21)">
    <g id="world-grid" transform="translate(1754 10)">
      <path id="패스_6" data-name="패스 6" d="M28,11A17,17,0,1,0,45,28,17,17,0,0,0,28,11Zm.694,32.467a.6.6,0,0,0-.111.007V36.861h5.405C32.774,40.462,30.859,42.981,28.694,43.467Zm-6.828-6.606H27.14v6.6h-.014C24.975,42.953,23.073,40.441,21.866,36.861Zm-9.333-8.139h6.543a30.708,30.708,0,0,0,.847,6.7H14.407A15.41,15.41,0,0,1,12.533,28.722Zm21.455-9.582H28.583V12.527a.6.6,0,0,1,.111.007C30.859,13.019,32.774,15.538,33.988,19.139Zm.43,1.443a29,29,0,0,1,.916,6.7H28.576v-6.7h5.842ZM27.126,12.54h.014v6.6H21.866C23.073,15.559,24.975,13.047,27.126,12.54Zm.014,8.042v6.7H20.52a28.951,28.951,0,0,1,.916-6.7h5.7Zm-8.063,6.7H12.533a15.384,15.384,0,0,1,1.873-6.7h5.516A30.708,30.708,0,0,0,19.077,27.278Zm1.443,1.443h6.62v6.7h-5.7A29,29,0,0,1,20.52,28.722Zm8.063,6.7v-6.7h6.758a28.951,28.951,0,0,1-.916,6.7Zm8.195-6.7h6.689a15.384,15.384,0,0,1-1.873,6.7H35.931A30.708,30.708,0,0,0,36.778,28.722Zm0-1.443a30.708,30.708,0,0,0-.847-6.7h5.662a15.411,15.411,0,0,1,1.873,6.7Zm3.92-8.139H35.529a15.434,15.434,0,0,0-3.254-6.023A15.507,15.507,0,0,1,40.7,19.139ZM23.524,13.172a15.659,15.659,0,0,0-3.2,5.967H15.3A15.558,15.558,0,0,1,23.524,13.172ZM15.3,36.861h5.024a15.659,15.659,0,0,0,3.2,5.967A15.558,15.558,0,0,1,15.3,36.861Zm16.972,6.023a15.466,15.466,0,0,0,3.254-6.03H40.7A15.449,15.449,0,0,1,32.274,42.884Z" fill="#fff"/>
    </g>
    <text id="KR" transform="translate(1807 47)" fill="#fff" font-size="20" font-family="KoreanGD17-R, KoreanGD17R"><tspan x="0" y="0">KR</tspan></text>
  </g>
</svg>
